<!-- created by svgstack.com | Attribution is required. --><svg width="109" height="108" viewBox="0 0 109 108" fill="none" xmlns="http://www.w3.org/2000/svg"><path d="M55.0637 9V42.1287C55.0637 42.2693 54.9231 42.41 54.7825 42.41C53.7981 42.8399 52.9543 43.2658 51.9698 43.6917C50.7042 44.2583 49.2978 44.8288 48.0322 45.54L43.3913 47.6696L39.5943 49.3773L34.9535 51.5108C33.6878 52.0814 32.4221 52.6479 31.0158 53.3591C30.0314 53.785 28.9063 54.3556 27.9219 54.7815C27.7813 54.7815 27.7813 54.9221 27.6406 54.7815H27.5C27.9219 54.0703 28.3438 53.4998 28.7657 52.7926C31.0158 48.9513 33.4065 45.1141 35.6566 41.2729C38.0473 37.1544 40.5787 33.0279 42.9694 28.9054C45.2195 25.0681 47.4696 21.2309 49.7197 17.5343C51.4073 14.6855 53.0949 11.9894 54.6418 9.14063C54.9231 9.14063 54.9231 9 55.0637 9C54.9231 9 55.0637 9 55.0637 9V9Z" fill="#8C8C8C"/><path d="M82.3461 54.7817C80.2366 56.2041 77.9865 57.4818 75.877 58.7596C68.9861 62.8861 62.2358 66.868 55.3449 70.9905C55.2042 70.9905 55.2042 71.1311 55.0636 71.1311C54.923 71.1311 54.923 70.9905 54.923 70.9905V42.4102C54.923 42.2695 55.0636 42.2695 55.2042 42.2695C55.7668 42.5508 56.3293 42.8401 57.0324 43.1214C58.72 43.9772 60.5482 44.6884 62.2358 45.5402C63.7827 46.2514 65.1891 46.9626 66.736 47.5291C68.2829 48.2403 69.6893 48.9515 71.2362 49.6627C72.5019 50.2333 73.9082 50.7998 75.1739 51.511C76.4396 52.0816 77.8459 52.6481 79.1116 53.3593C80.096 53.7852 81.0804 54.3558 82.2054 54.7817C82.2054 54.6411 82.2054 54.7817 82.3461 54.7817V54.7817Z" fill="#141414"/><path d="M55.0639 98.9995C55.0639 98.9995 54.9232 98.9995 55.0639 98.9995C54.9232 98.9995 54.9232 98.9995 54.7826 98.8549C51.97 94.877 49.298 91.0358 46.4853 87.0539L38.0475 75.1123C35.3755 71.2751 32.5628 67.4379 29.8908 63.452L27.7814 60.4666C27.7814 60.3259 27.6407 60.3259 27.6407 60.1853C27.7814 60.1853 27.7814 60.3259 27.922 60.3259C31.7191 62.6001 35.6567 64.8744 39.4538 67.1486C43.8133 69.8527 48.3135 72.4122 52.6731 75.1123C53.3763 75.5382 54.2201 75.9641 54.9232 76.39C55.0639 76.39 55.0639 76.5347 55.0639 76.6753V98.9995Z" fill="#8C8C8C"/><path d="M27.5 53.2934C27.5 53.1528 27.5 53.1528 27.5 53.2934C28.9063 52.5822 30.3126 52.0157 31.7189 51.3045L37.2036 48.745C38.6099 48.0338 40.0162 47.4673 41.4225 46.7561C43.3913 45.7596 45.5008 44.9078 47.4696 43.9113C48.876 43.3408 50.2823 42.6296 51.6886 42.063C52.673 41.6371 53.6574 41.2112 54.6418 40.6406C54.7825 40.6406 54.7825 40.5 54.9231 40.5V69.5022C54.7825 69.6468 54.7825 69.5022 54.6418 69.5022C54.2199 69.2209 53.7981 69.0763 53.5168 68.791L27.7813 53.4381C27.6406 53.2934 27.5 53.2934 27.5 53.2934ZM81.9243 58.5571C81.9243 58.6977 81.9243 58.6977 81.7837 58.8383C73.6271 70.4987 65.4705 82.0144 57.3138 93.6747C56.47 94.9524 55.6263 96.0895 54.7825 97.3713V74.7618C56.6107 73.6247 58.4389 72.4876 60.2671 71.4951L81.7837 58.6977C81.7837 58.5571 81.9243 58.5571 81.9243 58.5571V58.5571Z" fill="#3C3C3B"/><path d="M55.0637 42.2686V9.14795L82.0649 54.3589C82.2056 54.4995 82.3462 54.6402 82.3462 54.7848C81.7837 54.5036 81.2211 54.2143 80.518 53.933C79.8148 53.6477 79.1117 53.2218 78.4085 52.9365C77.9866 52.7959 77.5647 52.5106 77.0022 52.366C76.299 52.0847 75.4553 51.6548 74.7521 51.3735C74.3302 51.2289 73.9083 50.9476 73.4864 50.8029L70.5332 49.5252C69.9706 49.2399 69.5487 49.0993 68.9862 48.814C68.2831 48.5287 67.5799 48.1028 66.8768 47.8175C66.4549 47.6769 66.033 47.3916 65.6111 47.251L62.6578 45.9692C62.0953 45.688 61.6734 45.5433 61.1109 45.258C60.4077 44.9768 59.7046 44.5469 59.0014 44.2616C58.5795 43.9803 58.017 43.8357 57.5951 43.5544L55.0637 42.2726V42.2686Z" fill="#343434"/></svg> 