<svg xmlns="http://www.w3.org/2000/svg" width="38" height="24" role="img" aria-labelledby="ethereum" viewBox="0 0 38 24" fill="none">
  <title id="ethereum">Ethereum</title>
  <path opacity=".07" d="M35 0H3C1.3 0 0 1.3 0 3v18c0 1.7 1.4 3 3 3h32c1.7 0 3-1.3 3-3V3c0-1.7-1.4-3-3-3z" fill="#000"/>
  <path d="M35 1c1.1 0 2 .9 2 2v18c0 1.1-.9 2-2 2H3c-1.1 0-2-.9-2-2V3c0-1.1.9-2 2-2h32z" fill="#fff"/>
  <circle cx="18.9" cy="11.9" r="8" fill="#6481e7"/>
  <path d="m 15.428301,12.201886 3.572327,2.113208 V 6.264779 Z" fill="#ffffff" fill-rule="evenodd"/>
  <path d="m 19.000628,6.264779 v 8.050315 l 3.572327,-2.113208 z" fill="#c1ccf5" fill-rule="evenodd"/>
  <path d="m 19.000628,10.591823 -3.572327,1.610063 3.572327,2.113208 3.572327,-2.113208 z" fill="#8299ec" fill-rule="evenodd"/>
  <path d="m 19.000628,10.591823 -3.572327,1.610063 3.572327,2.113208 z" fill="#c1ccf5" fill-rule="evenodd"/>
  <path d="m 15.428301,12.906289 3.572327,5.031446 v -2.918239 z" fill="#ffffff" fill-rule="evenodd"/>
  <path d="m 19.000628,15.019496 v 2.918239 l 3.572327,-5.031446 z" fill="#c1ccf5" fill-rule="evenodd"/>
</svg>
