<svg xmlns="http://www.w3.org/2000/svg" aria-labelledby="monero" width="38" height="24" viewBox="0 0 38 24" fill="none">
  <title id="monero">Monero</title>
  <path opacity=".07" d="M35 0H3C1.3 0 0 1.3 0 3v18c0 1.7 1.4 3 3 3h32c1.7 0 3-1.3 3-3V3c0-1.7-1.4-3-3-3z" fill="#000"/>
  <path d="M35 1c1.1 0 2 .9 2 2v18c0 1.1-.9 2-2 2H3c-1.1 0-2-.9-2-2V3c0-1.1.9-2 2-2h32z" fill="#fff"/>
  <path d="m 26.998,11.9992 c 0,4.4177 -3.581,7.9992 -7.999,7.9992 C 14.581,19.9984 11,16.4169 11,11.9992 11,7.5815 14.5811,4 18.999,4 c 4.4179,0 7.999,3.5812 7.999,7.9992 z" fill="#ffffff"/>
  <path d="m 18.998793,4 c -4.4164,0 -8.0037,3.5866 -7.9981,7.999 0,0.8827 0.1419,1.7319 0.4061,2.5262 h 2.3932 V 7.7961 l 5.1988,5.1988 5.1986,-5.1988 v 6.7293 h 2.3937 c 0.2646,-0.7943 0.4046,-1.6435 0.4062,-2.5263 0.01,-4.417 -3.5816,-7.998 -7.9985,-7.998 z" fill="#f26822"/>
  <path d="m 17.8032,14.19 -2.2688,-2.2689 v 4.2343 h -1.7346 l -1.6368,3e-4 C 13.567,18.4592 16.1044,20 18.9988,20 c 2.8944,0 5.4319,-1.5412 6.8362,-3.8446 H 22.4627 V 11.9211 L 20.1937,14.19 18.9985,15.3852 17.8033,14.19 v 0 z" fill="#4d4d4d"/>
</svg>
