<!-- created by svgstack.com | Attribution is required. --><svg width="108" height="108" viewBox="0 0 108 108" fill="none" xmlns="http://www.w3.org/2000/svg"><path fill-rule="evenodd" clip-rule="evenodd" d="M25.4908 15.248L9.07362 49.7252C9.00797 49.8501 8.98536 49.9932 9.00929 50.1323C9.03322 50.2714 9.10236 50.3987 9.20599 50.4945L53.5229 92.9817C53.6504 93.0966 53.816 93.1602 53.9876 93.1602C54.1593 93.1602 54.3249 93.0966 54.4524 92.9817L98.7958 50.4945C98.8983 50.398 98.9667 50.2707 98.9906 50.132C99.0145 49.9932 98.9925 49.8504 98.9281 49.7252L82.511 15.248C82.4674 15.1281 82.387 15.025 82.2814 14.9534C82.1757 14.8818 82.0502 14.8454 81.9227 14.8494H26.0732C25.9473 14.8529 25.8251 14.8922 25.7209 14.9628C25.6166 15.0334 25.5347 15.1324 25.4849 15.248H25.4908Z" fill="#50AF95"/><path fill-rule="evenodd" clip-rule="evenodd" d="M59.7046 53.2526C59.3869 53.2791 57.7426 53.385 54.0817 53.385C51.1651 53.385 49.0957 53.3056 48.3529 53.2526C37.0821 52.7496 28.675 50.7861 28.675 48.4519C28.675 46.1177 37.0821 44.1292 48.3529 43.6262V51.2906C49.0883 51.3435 51.1916 51.4759 54.1082 51.4759C57.6087 51.4759 59.359 51.317 59.6782 51.2906V43.6262C70.9225 44.1292 79.3296 46.0927 79.3296 48.4254C79.3296 50.7581 70.946 52.7496 59.7046 53.2526ZM59.7046 42.8569V35.9868H75.4055V25.5117H32.6535V35.9868H48.3529V42.8569C35.5966 43.4453 25.9967 45.9589 25.9967 49.0093C25.9967 52.0598 35.5966 54.5528 48.3529 55.1617V77.1488H59.7046V55.1617C72.4345 54.5734 82.0094 52.0583 82.0094 49.0358C82.0094 46.0133 72.4345 43.4394 59.7046 42.8584V42.8569Z" fill="white"/></svg> 