<!-- created by svgstack.com | Attribution is required. --><svg width="108" height="108" viewBox="0 0 108 108" fill="none" xmlns="http://www.w3.org/2000/svg"><path d="M54 99C78.8528 99 99 78.8528 99 54C99 29.1472 78.8528 9 54 9C29.1472 9 9 29.1472 9 54C9 78.8528 29.1472 99 54 99Z" fill="white"/><path d="M91.5086 78.1122H73.7488V54L54 73.486L34.2511 54V78.1122H16.4913H15.923C23.8794 90.5888 37.9451 99 54 99C70.0548 99 84.1205 90.729 92.0769 78.1122H91.5086Z" fill="#4C4C4C"/><path d="M24.8991 67.8462V30.7689L54 59.5599L83.1009 30.7689V67.8462H96.5867C98.1483 63.3519 99 58.5768 99 53.5208C99 28.9431 78.8423 9 54 9C29.1577 9 9 28.9431 9 53.5208C9 58.5768 9.85174 63.3519 11.4132 67.8462H24.8991V67.8462Z" fill="#FF6B01"/></svg> 