<!-- created by svgstack.com | Attribution is required. --><svg width="18" height="16" viewBox="0 0 18 16" fill="none" xmlns="http://www.w3.org/2000/svg"><g clip-path="url(#clip0_202_473)"><path d="M9.05492 15.1344C12.995 15.1344 16.1891 11.9403 16.1891 8.00023C16.1891 4.06015 12.995 0.866089 9.05492 0.866089C5.11484 0.866089 1.92078 4.06015 1.92078 8.00023C1.92078 11.9403 5.11484 15.1344 9.05492 15.1344Z" fill="white"/><path d="M9.05469 0.000244141C7.47244 0.000244141 5.92572 0.469436 4.61013 1.34849C3.29454 2.22754 2.26916 3.47697 1.66365 4.93878C1.05815 6.40059 0.899727 8.00912 1.20841 9.56097C1.51709 11.1128 2.27902 12.5383 3.39784 13.6571C4.51666 14.7759 5.94212 15.5378 7.49397 15.8465C9.04582 16.1552 10.6543 15.9968 12.1162 15.3913C13.578 14.7858 14.8274 13.7604 15.7064 12.4448C16.5855 11.1292 17.0547 9.58249 17.0547 8.00024V8.00024C17.0577 6.95272 16.8544 5.91485 16.4564 4.9459C16.0584 3.97694 15.4734 3.09588 14.7348 2.35301C13.9962 1.61014 13.1186 1.02001 12.152 0.616325C11.1854 0.212637 10.1487 0.00329221 9.10118 0.000244141H9.05469ZM9.19028 8.27143L8.35735 11.0801H12.8126C12.8421 11.0791 12.8715 11.0839 12.8992 11.0942C12.9268 11.1046 12.9522 11.1203 12.9738 11.1404C12.9953 11.1606 13.0127 11.1848 13.025 11.2117C13.0372 11.2386 13.044 11.2676 13.045 11.2971V11.3707L12.6576 12.7073C12.6405 12.7705 12.6024 12.826 12.5497 12.8647C12.4969 12.9034 12.4325 12.923 12.367 12.9203H5.54864L6.69149 9.02688L5.41304 9.41429L5.7036 8.52325L6.98205 8.13584L8.5898 2.67337C8.6075 2.61052 8.64572 2.55539 8.69837 2.51678C8.75103 2.47817 8.81509 2.45828 8.88036 2.46029H10.6043C10.6338 2.45926 10.6633 2.46405 10.6909 2.47439C10.7186 2.48474 10.7439 2.50044 10.7655 2.52059C10.7871 2.54073 10.8045 2.56494 10.8167 2.59182C10.829 2.6187 10.8358 2.64773 10.8368 2.67724V2.75085L9.48084 7.36102L10.7593 6.97361L10.4881 7.90339L9.19028 8.27143Z" fill="#345D9D"/></g><defs><clipPath id="clip0_202_473"><rect width="17" height="16" fill="white" transform="translate(0.274414 0.000244141)"/></clipPath></defs></svg> 