<!-- created by svgstack.com | Attribution is required. --><svg width="108" height="108" viewBox="0 0 108 108" fill="none" xmlns="http://www.w3.org/2000/svg"><path d="M74.6236 40.1117C73.1289 39.231 71.1862 39.231 69.5425 40.1117L57.8855 46.8645L49.9648 51.2685L38.3081 58.0211C36.8136 58.9018 34.8708 58.9018 33.2269 58.0211L23.9613 52.7362C22.4668 51.8555 21.4207 50.2409 21.4207 48.4792V38.0566C21.4207 36.295 22.3173 34.6802 23.9613 33.7994L33.0775 28.6615C34.5719 27.7807 36.5147 27.7807 38.1586 28.6615L47.2749 33.7994C48.7693 34.6802 49.8155 36.295 49.8155 38.0566V44.8093L57.7361 40.2585V33.5058C57.7361 31.7442 56.8396 30.1295 55.1956 29.2487L38.3081 19.56C36.8136 18.6792 34.8708 18.6792 33.2269 19.56L16.0406 29.2487C14.3967 30.1295 13.5 31.7442 13.5 33.5058V53.03C13.5 54.7915 14.3967 56.4065 16.0406 57.2872L33.2269 66.9759C34.7214 67.8566 36.6642 67.8566 38.3081 66.9759L49.9648 60.3699L57.8855 55.8192L69.5425 49.2132C71.0368 48.3324 72.9796 48.3324 74.6236 49.2132L83.7398 54.3512C85.2341 55.2319 86.2803 56.8468 86.2803 58.6084V69.0309C86.2803 70.7927 85.3838 72.4073 83.7398 73.2881L74.6236 78.5729C73.1289 79.4537 71.1862 79.4537 69.5425 78.5729L60.4263 73.435C58.9317 72.5542 57.8855 70.9393 57.8855 69.1778V62.4252L49.9648 66.9759V73.7284C49.9648 75.49 50.8617 77.1049 52.5054 77.9856L69.6919 87.6743C71.1862 88.555 73.1289 88.555 74.7729 87.6743L91.9595 77.9856C93.4538 77.1049 94.5 75.49 94.5 73.7284V54.2043C94.5 52.4427 93.6032 50.8281 91.9595 49.9474L74.6236 40.1117Z" fill="#8247E5"/></svg> 