<!-- created by svgstack.com | Attribution is required. --><svg width="17" height="16" viewBox="0 0 17 16" fill="none" xmlns="http://www.w3.org/2000/svg"><g clip-path="url(#clip0_202_512)"><path d="M8.26635 15.5205C12.4389 15.5205 15.7958 12.1637 15.7958 7.99108C15.7958 3.81851 12.4389 0.46167 8.26635 0.46167C4.09378 0.46167 0.736938 3.81851 0.736938 7.99108C0.736938 12.1637 4.09378 15.5205 8.26635 15.5205Z" fill="#2775CA"/><path d="M10.337 9.18308C10.337 8.08506 9.6782 7.70859 8.36057 7.55175C7.41941 7.42623 7.23118 7.17528 7.23118 6.73601C7.23118 6.29674 7.54492 6.01446 8.17234 6.01446C8.73704 6.01446 9.05079 6.2027 9.20762 6.67329C9.23902 6.76741 9.33314 6.83013 9.42725 6.83013H9.92915C10.0547 6.83013 10.1488 6.73601 10.1488 6.61057V6.57917C10.0233 5.88895 9.45857 5.35564 8.73704 5.29292V4.53997C8.73704 4.41446 8.64292 4.32034 8.48609 4.28894H8.01551C7.88999 4.28894 7.79588 4.38306 7.76448 4.53997V5.26152C6.82332 5.38703 6.2273 6.01446 6.2273 6.7988C6.2273 7.8341 6.85471 8.2419 8.17234 8.39881C9.05079 8.55565 9.33314 8.74389 9.33314 9.24587C9.33314 9.74786 8.89388 10.0929 8.29786 10.0929C7.48213 10.0929 7.19978 9.74779 7.10566 9.27719C7.07434 9.15175 6.98023 9.08896 6.88611 9.08896H6.35273C6.2273 9.08896 6.13318 9.18308 6.13318 9.30859V9.33999C6.25862 10.1243 6.7606 10.689 7.79588 10.8459V11.5988C7.79588 11.7243 7.88999 11.8184 8.04683 11.8498H8.51741C8.64292 11.8498 8.73704 11.7557 8.76844 11.5988V10.8459C9.7096 10.689 10.337 10.0301 10.337 9.18308V9.18308Z" fill="white"/><path d="M6.66711 12.4774C4.22005 11.599 2.96513 8.8696 3.87498 6.45387C4.34557 5.13622 5.38086 4.13232 6.66711 3.66173C6.79263 3.59901 6.85535 3.5049 6.85535 3.34798V2.90879C6.85535 2.78328 6.79263 2.68916 6.66711 2.65784C6.63572 2.65784 6.573 2.65784 6.5416 2.68916C3.56123 3.63034 1.92983 6.79901 2.87101 9.77938C3.43572 11.5362 4.78476 12.8853 6.5416 13.45C6.66711 13.5127 6.79263 13.45 6.82395 13.3245C6.85535 13.2931 6.85535 13.2617 6.85535 13.199V12.7597C6.85535 12.6656 6.76123 12.5402 6.66711 12.4774ZM9.99263 2.68916C9.86711 2.62644 9.7416 2.68916 9.71028 2.81467C9.67888 2.84607 9.67888 2.87739 9.67888 2.94019V3.37938C9.67888 3.5049 9.773 3.63034 9.86711 3.69313C12.3142 4.57151 13.5691 7.30092 12.6592 9.71666C12.1887 11.0343 11.1534 12.0382 9.86711 12.5088C9.7416 12.5715 9.67888 12.6656 9.67888 12.8225V13.2617C9.67888 13.3872 9.7416 13.4814 9.86711 13.5127C9.89851 13.5127 9.96123 13.5127 9.99263 13.4814C12.973 12.5402 14.6044 9.37151 13.6632 6.39115C13.0985 4.60291 11.7181 3.25386 9.99263 2.68916V2.68916Z" fill="white"/></g><defs><clipPath id="clip0_202_512"><rect width="16" height="16" fill="white" transform="translate(0.387695 0.000244141)"/></clipPath></defs></svg> 