<svg xmlns="http://www.w3.org/2000/svg" width="38" height="24" role="img" aria-labelledby="bitcoin" viewBox="0 0 38 24" fill="none">
  <title id="bitcoin">Bitcoin</title>
  <path opacity=".07" d="M35 0H3C1.3 0 0 1.3 0 3v18c0 1.7 1.4 3 3 3h32c1.7 0 3-1.3 3-3V3c0-1.7-1.4-3-3-3z" fill="#000"/>
  <path d="M35 1c1.1 0 2 .9 2 2v18c0 1.1-.9 2-2 2H3c-1.1 0-2-.9-2-2V3c0-1.1.9-2 2-2h32z" fill="#fff"/>
  <path d="m 27.1,12.1 c 0,4.42236 -3.57764,8 -8,8 -4.42236,0 -8,-3.57764 -8,-8 0,-4.4223602 3.57764,-8 8,-8 4.42236,0 8,3.5776398 8,8 z M 20.988198,9.1186335 c 1.093168,0.3975155 1.937889,0.9440995 1.78882,2.0372675 -0.09938,0.795031 -0.546584,1.142857 -1.142856,1.291925 0.795031,0.397516 1.043478,1.192547 0.795031,2.136646 -0.496895,1.341615 -1.590063,1.490683 -3.130435,1.192546 l -0.347826,1.440995 -0.89441,-0.198759 0.347826,-1.440993 c -0.248447,-0.04969 -0.447205,-0.09938 -0.695652,-0.198758 l -0.347826,1.440994 -0.89441,-0.198758 0.347826,-1.440993 -1.78882,-0.447206 0.447205,-0.993789 c 0,0 0.645963,0.149069 0.645963,0.149069 0.248447,0.04969 0.347826,-0.09938 0.397515,-0.198758 l 0.993789,-3.9751552 c 0,-0.1987578 -0.04969,-0.3975155 -0.397516,-0.4968944 0,0 -0.645962,-0.1490683 -0.645962,-0.1490683 l 0.248447,-0.9440994 1.788819,0.447205 0.347827,-1.4409938 0.894409,0.1987578 -0.347825,1.4409937 c 0.248447,0.04969 0.496894,0.099379 0.695652,0.1490684 l 0.347826,-1.3913044 0.89441,0.1987578 z m -2.086956,2.4347825 c 0.596273,0.149069 1.888199,0.496894 2.136646,-0.397515 0.248447,-0.9441 -1.043478,-1.192547 -1.639751,-1.3416153 v 0 0 c -0.04969,0 -0.149069,-0.04969 -0.198758,-0.04969 l -0.447205,1.7391303 c 0.04969,0 0.09938,0.04969 0.149068,0.04969 z m -0.695652,2.832298 c 0.695652,0.198758 2.285714,0.596273 2.534161,-0.397516 0.248447,-1.043477 -1.291925,-1.391304 -2.037266,-1.540372 v 0 c -0.09938,0 -0.149069,-0.04969 -0.198759,-0.04969 l -0.496894,1.937888 c 0.09938,0 0.149069,0 0.198758,0.04969 z" fill="#f7931a" fill-rule="evenodd"/>
</svg>
