<svg viewBox="0 0 38 24" xmlns="http://www.w3.org/2000/svg" role="img" width="38" height="24" aria-labelledby="pi-paypal">
  <title id="pi-paypal">PayPal</title>
  <path opacity=".07" d="M35 0H3C1.3 0 0 1.3 0 3v18c0 1.7 1.4 3 3 3h32c1.7 0 3-1.3 3-3V3c0-1.7-1.4-3-3-3z" fill="#000"/>
  <path fill="#fff" d="M35 1c1.1 0 2 .9 2 2v18c0 1.1-.9 2-2 2H3c-1.1 0-2-.9-2-2V3c0-1.1.9-2 2-2h32z"/>
  <path fill="#002B8A" d="M16.2 7.1h-2.9c-.2 0-.4.2-.5.4L10.4 16c0 .1 0 .2.1.2h1.9c.2 0 .4-.2.4-.4l.4-2.5c0-.2.2-.4.5-.4h1c1.2 0 2.1-.5 2.5-1.4.3-.6.2-1.2-.2-1.7-.6-.6-1.6-.8-2.9-.8zm.3 2.4c.2.4.1.8-.2 1-.3.2-.8.3-1.4.3h-.4l-.2 1.3h-1.2l.7-4.2h2.4c.5 0 .9.2 1 .6.1.2.1.5 0 .9z"/>
  <path fill="#009CDE" d="M22.9 7.1h-2.9c-.2 0-.3.1-.4.2l-2.4 3.8-1-3.6c-.1-.2-.3-.4-.5-.4h-1.9c-.2 0-.3.2-.3.3 0 .1-.9 3.3-.9 3.3 0 .2.1.2.2.2h1.4c.2 0 .4-.2.4-.4l.5-3c0-.1.2-.2.3-.2h.9c.2 0 .3.1.4.2l.5 2.9c0 .2.2.4.4.4h1.4c.2 0 .3-.1.2-.2l-1.3-6.3z"/>
</svg>
