<svg xmlns="http://www.w3.org/2000/svg" viewBox="0 0 38 24" width="38" height="24" role="img" aria-labelledby="pi-paypal">
  <title id="pi-paypal">PayPal</title>
  <!-- Card-style border -->
  <rect fill="#fff" width="38" height="24" rx="3"/>
  <rect x="0.5" y="0.5" width="37" height="23" rx="2.5" fill="none" stroke="#000" stroke-opacity="0.07"/>
  
  <!-- PayPal Logo - Clean monogram style -->
  <g transform="translate(8, 4)" fill="none" fill-rule="evenodd">
    <!-- Dark Blue P -->
    <path fill="#003087" d="M2.5 8c-.1 0-.2 0-.2-.1l.3-1.8c0-.1.1-.1.2-.1h1.2c2.1 0 3.3-1 3.6-3 .2-1.1 0-1.9-.5-2.5-.5-.6-1.4-.9-2.6-.9H0c-.1 0-.2.1-.2.2l-.5 3.6C-.7 4.3-.6 4.4-.5 4.4h1.2c.1 0 .2-.1.2-.2l.2-1.1c0-.1.1-.1.2-.1h.7c.9 0 1.6.1 2 .7.3.5.2 1-.2 1.4-.4.5-1 .7-2 .7h-.7c-.1 0-.2.1-.2.2l-.3 1.8z"/>
    
    <!-- Light Blue P -->
    <path fill="#0070E0" d="M5.8 8c-.1 0-.2 0-.2-.1l.3-1.8c.4-2 1.8-3.1 4.1-3.1h1.1c.1 0 .2-.1.2-.2l.6-3.6c0-.1-.1-.2-.2-.2H9.3c-.1 0-.2.1-.2.2l-.3 2c0 .1-.1.1-.2.1H7.7c-.9 0-1.5.1-1.9.7-.3.5-.2 1 .2 1.4.4.5 1 .7 2 .7h.7c.1 0 .2.1.2.2l-.3 1.8c2.1-4.6 2.1-4.6 2.3-5.1.1-.1.2-.2.3-.2h1.2c.1 0 .2.1.2.2L10.3 8c-.1.1-.1.1-.2.1H8.1c-.1 0-.2 0-.2-.1l.1-.9c0-.1 0-.1-.1-.1H6.8c-.9 0-1.5.1-1.9.7-.3.5-.2 1 .2 1.4.4.5 1 .7 2 .7h.7c.1 0 .2.1.2.2L8 7.9c0 .1-.1.1-.2.1H5.8z"/>
  </g>
</svg>