<svg xmlns="http://www.w3.org/2000/svg" width="38" height="24" role="img" aria-labelledby="solana" viewBox="0 0 38 24" fill="none">
  <title id="solana">Solana</title>
  <path opacity=".07" d="M35 0H3C1.3 0 0 1.3 0 3v18c0 1.7 1.4 3 3 3h32c1.7 0 3-1.3 3-3V3c0-1.7-1.4-3-3-3z" fill="#000"/>
  <path d="M35 1c1.1 0 2 .9 2 2v18c0 1.1-.9 2-2 2H3c-1.1 0-2-.9-2-2V3c0-1.1.9-2 2-2h32z" fill="#fff"/>
  <defs>
    <linearGradient id="solana-grad" x1="0%" y1="0%" x2="100%" y2="100%">
      <stop offset="0%" stop-color="#9945FF"/>
      <stop offset="100%" stop-color="#14F195"/>
    </linearGradient>
  </defs>
  <g fill="url(#solana-grad)">
    <path fill-rule="evenodd" d="M12 7.2c.5 0 .9.4.9.9v.8h1.8c.5 0 .9.4.9.9s-.4.9-.9.9h-2.7v.9h2.7c.5 0 .9.4.9.9s-.4.9-.9.9h-2.7v1.5c0 .5-.4.9-.9.9s-.9-.4-.9-.9v-1.5H9.3c-.5 0-.9-.4-.9-.9s.4-.9.9-.9h2.7v-.9H9.3c-.5 0-.9-.4-.9-.9s.4-.9.9-.9h2.7v-.8c0-.5.4-.9.9-.9h2.1zm6.2 0h2.2l-1.4 4.2h2l-1.4 4.2h-2.2l1.4-4.2h-2l1.4-4.2zm3.2 0h2.2l-2.8 8.4h-2.2l2.8-8.4z"/>
  </g>
</svg>
